<svg xmlns="http://www.w3.org/2000/svg" viewBox="0 0 116.6 33.5">
  <title>logo</title>
  <g id="Calque_2" data-name="Calque 2">
    <g id="CONTENT">
      <g>
        <rect width="6.3" height="33.55" fill="#ec2741"/>
        <g>
          <path d="M36.1,4.4C32.9,1.5,28.2,0,22.3,0H10.7V33.5H21.9c6.4,0,11.2-1.5,14.3-4.6S41,21.8,41,16.6,39.3,7.3,36.1,4.4ZM31.6,24.9c-2,1.8-5,2.7-8.9,2.7H16.9V5.8h5.2c8.4,0,12.6,3.6,12.6,10.9,0,3.6-1,6.3-3,8.1" fill="#e51e31"/>
          <path d="M70,4.4C66.8,1.5,62.2,0,56.2,0H44.6V33.5H55.8c6.4,0,11.2-1.5,14.3-4.6s4.7-7.2,4.7-12.4S73.3,7.3,70,4.4ZM65.5,24.9c-2,1.8-5,2.7-8.9,2.7H50.8V5.8H56c8.4,0,12.6,3.6,12.6,10.9,0,3.6-1,6.3-3,8.1" fill="#e51e31"/>
          <path d="M105.4,11c0-3.8-1.1-6.7-3.4-8.4S96.1,0,91,0H78.5V33.5h6.3v-11h6.7l7.8,11h7.9L98.5,21.5c4.6-1.5,6.9-5,6.9-10.4m-8,4.4c-1.1.9-3.1,1.4-6.2,1.4H84.7V5.7h6.7c2.9,0,4.9.4,6,1.1S99,9,99,11s-.5,3.5-1.6,4.4" fill="#4a4748"/>
          <rect x="110.3" width="6.3" height="33.55" fill="#4a4748"/>
        </g>
      </g>
    </g>
  </g>
</svg>
